# xmcd
#
# Track frame offsets:
# 150
# 13420
# 28172
# 44992
# 60872
# 79597
# 92882
# 108732
# 123885
# 130597
# 144412
#
# Disc length: 2185 seconds
#
#
# Revision: 6
# Processed by: cddbd v1.5.1PL0 Copyright (c) Steve Scherf et al.
# Submitted via: FreeRIP 2.92 
#
DISCID=9508870b
DTITLE=Lou Reed - Transformer
DYEAR=1972
DGENRE=Rock
TTITLE0=Vicious
TTITLE1=Andy's Chest
TTITLE2=Perfect Day
TTITLE3=Hangin' Round
TTITLE4=Walk On The Wild Side
TTITLE5=Make Up
TTITLE6=Satellite Of Love
TTITLE7=Wagon Wheel
TTITLE8=New York Telephone Conversation
TTITLE9=I'm So Free
TTITLE10=Goodnight Ladies
EXTD=YEAR: 1972
EXTT0=
EXTT1=
EXTT2=
EXTT3=
EXTT4=
EXTT5=
EXTT6=
EXTT7=
EXTT8=
EXTT9=
EXTT10=
PLAYORDER=
